<svg width="674" height="610" viewBox="0 0 674 610" fill="none" xmlns="http://www.w3.org/2000/svg" xmlns:xlink="http://www.w3.org/1999/xlink">
<path d="M1.351,499.672C7.218,496.8 9.708,489.179 16.072,487.191C22.603,485.147 29.853,489.179 35.83,484.761C38.431,482.828 40.368,479.624 43.522,478.465C46.289,477.47 49.167,478.575 51.824,479.403C54.093,480.121 56.362,480.784 58.631,481.502C67.762,484.319 76.838,487.08 85.97,489.897C96.319,493.045 106.613,496.248 116.962,499.396C117.958,499.728 118.4,498.126 117.404,497.795C98.477,491.996 79.605,486.197 60.678,480.398C56.251,479.072 51.658,477.029 47.064,476.476C43.854,476.09 41.309,477.36 39.039,479.459C35.885,482.386 33.505,485.092 28.912,485.313C25.093,485.534 21.33,484.54 17.511,485.147C9.653,486.362 7.218,494.923 0.576,498.181C-0.42,498.733 0.41,500.169 1.351,499.672Z" fill="#E8E8E8"/>
<path d="M100.801,492.713C104.731,493.707 107.83,489.786 111.372,488.626C116.131,487.025 121.223,487.687 125.54,490.173C126.48,490.725 127.31,489.289 126.37,488.737C122.717,486.583 118.566,485.699 114.36,486.251C112.534,486.472 110.818,486.969 109.158,487.687C106.778,488.737 104.011,491.774 101.244,491.112C100.193,490.835 99.75,492.437 100.801,492.713Z" fill="#E8E8E8"/>
<path d="M143.471,488.571C139.763,485.534 136.221,482.275 132.9,478.796C131.35,477.194 129.856,475.482 128.417,473.77C127.587,472.776 126.757,471.782 125.982,470.788C125.429,470.07 124.875,469.352 124.377,468.634C123.492,467.75 123.492,466.645 124.433,465.43C125.097,465.706 126.148,465.044 125.595,464.271C122.219,459.742 119.729,454.771 118.124,449.359C117.792,449.69 117.46,450.022 117.128,450.353C118.954,450.85 120.282,451.789 121.278,453.335C121.832,454.219 123.271,453.446 122.717,452.507C114.471,438.258 107.719,423.236 102.628,407.606C102.185,407.882 101.687,408.158 101.244,408.434C124.433,431.189 134.948,462.835 154.484,488.295C155.148,489.123 156.587,488.295 155.923,487.467C136.331,461.896 125.706,430.139 102.406,407.275C101.853,406.722 100.746,407.275 101.023,408.103C106.17,423.898 112.922,439.031 121.278,453.39C121.776,453.114 122.219,452.838 122.717,452.562C121.444,450.629 119.784,449.359 117.57,448.806C116.962,448.641 116.353,449.193 116.574,449.801C118.234,455.323 120.78,460.46 124.211,465.099C124.599,464.712 124.986,464.326 125.374,463.939C123.824,463.221 122.108,463.939 121.721,465.762C121.223,468.357 124.377,471.229 125.816,473.052C130.742,479.182 136.331,484.76 142.419,489.731C143.138,490.394 144.301,489.234 143.471,488.571Z" fill="#E8E8E8"/>
<path d="M137.66,454.053C127.477,438.865 119.23,422.573 113.143,405.342C112.977,405.673 112.755,406.004 112.589,406.336C114.471,405.894 116.076,406.612 117.127,408.269C117.681,409.208 119.009,408.379 118.566,407.44C109.988,388.939 101.244,369.664 101.853,348.842C101.355,349.008 100.801,349.119 100.303,349.284C115.08,379.66 129.137,410.423 142.419,441.461C142.806,442.345 144.245,441.682 143.913,440.798C141.7,434.171 139.541,427.488 137.328,420.861C136.276,417.602 135.169,414.399 134.118,411.141C133.398,408.987 131.849,404.292 134.948,403.132C134.616,403.022 134.339,402.856 134.007,402.746C137.992,410.533 141.921,418.32 145.906,426.108C146.404,427.046 147.843,426.218 147.345,425.279C143.028,416.829 141.035,407.495 141.423,397.996C140.869,398.051 140.316,398.162 139.818,398.217C151.329,426.77 164.667,454.606 179.664,481.502C180.163,482.441 181.601,481.613 181.103,480.674C166.161,453.888 152.879,426.218 141.423,397.775C141.091,396.947 139.818,397.002 139.818,397.996C139.431,407.772 141.534,417.326 145.961,426.108C146.459,425.831 146.902,425.555 147.4,425.279C143.415,417.492 139.486,409.705 135.501,401.917C135.335,401.641 134.892,401.42 134.56,401.531C129.026,403.574 132.568,411.472 133.786,415.172C136.663,423.843 139.486,432.569 142.364,441.24C142.862,441.019 143.36,440.798 143.858,440.577C130.576,409.539 116.519,378.776 101.742,348.401C101.355,347.627 100.193,348.069 100.193,348.842C99.529,369.94 108.439,389.546 117.127,408.269C117.626,407.992 118.068,407.716 118.566,407.44C117.127,405.176 114.803,404.182 112.147,404.734C111.704,404.844 111.427,405.342 111.593,405.728C117.736,423.07 126.038,439.528 136.276,454.827C136.829,455.765 138.268,454.937 137.66,454.053Z" fill="#E8E8E8"/>
<path d="M28.303,560.81C47.451,551.587 67.651,542.198 89.512,544.408C99.861,545.457 109.878,548.439 120.171,549.765C125.373,550.427 130.631,550.704 135.833,550.096C140.703,549.489 145.297,547.721 150.056,546.672C156.199,545.291 161.789,546.727 167.71,548.384C172.581,549.709 177.395,550.814 182.431,549.654C183.483,549.433 183.04,547.832 181.989,548.053C171.916,550.427 162.453,543.192 152.27,544.628C147.234,545.346 142.53,547.335 137.549,548.218C132.291,549.102 126.923,548.992 121.61,548.329C111.15,547.114 100.967,544.021 90.452,542.861C80.103,541.701 69.865,543.027 59.959,545.899C48.669,549.212 37.988,554.293 27.473,559.375C26.477,559.816 27.362,561.252 28.303,560.81Z" fill="#E8E8E8"/>
<path d="M140.648,606.595C147.123,603.834 153.488,600.796 159.631,597.372C162.84,595.549 165.995,593.671 169.149,591.683C171.972,589.861 174.794,587.265 177.894,585.939C181.38,584.503 186.638,587.21 190.124,588.259C193.832,589.419 197.54,590.523 201.193,591.683C208.775,594.003 216.357,596.322 223.883,598.642C224.879,598.973 225.322,597.372 224.326,597.04C216.246,594.555 208.11,592.07 200.03,589.585C196.157,588.369 192.283,587.21 188.409,585.995C185.42,585.056 181.657,583.123 178.502,583.896C175.569,584.614 172.913,587.154 170.422,588.811C167.212,590.91 163.892,592.953 160.571,594.886C153.875,598.697 146.957,602.121 139.818,605.104C138.822,605.546 139.707,606.982 140.648,606.595Z" fill="#E8E8E8"/>
<path d="M209.494,608.307C213.7,606.209 217.906,604.055 222.112,601.956C225.986,599.968 230.137,597.317 234.564,596.93C239.047,596.488 242.533,599.416 246.407,601.128C249.673,602.564 253.214,603.392 256.756,603.613C265.058,604.055 272.806,599.913 281.052,600.354C287.637,600.741 294.278,606.153 300.753,602.729C301.694,602.232 300.864,600.796 299.923,601.293C295.883,603.447 291.511,601.349 287.527,600.078C284.095,598.974 280.775,598.477 277.178,598.863C268.655,599.747 260.852,603.337 252.108,601.293C244.858,599.636 239.323,593.616 231.52,595.881C227.923,596.93 224.547,598.918 221.227,600.575C217.021,602.674 212.815,604.828 208.608,606.927C207.723,607.368 208.553,608.804 209.494,608.307Z" fill="#E8E8E8"/>
<path d="M241.814,596.322C238.383,593.34 235.284,590.026 232.738,586.216C231.576,584.503 230.524,582.681 229.528,580.858C229.03,579.919 228.587,578.981 228.2,578.042C227.868,577.268 227.536,576.55 227.259,575.777C226.761,574.949 226.982,574.176 227.923,573.458C228.421,573.237 228.919,573.016 229.417,572.795C223.33,563.848 219.511,553.686 218.238,542.971C217.74,543.192 217.297,543.358 216.799,543.579C217.795,544.849 218.792,546.119 219.843,547.445C220.452,548.218 221.614,547.224 221.171,546.451C211.542,529.275 206.395,509.945 206.284,490.283C205.786,490.504 205.343,490.67 204.845,490.891C208.609,493.928 211.486,497.684 213.257,502.157C213.755,501.936 214.254,501.715 214.752,501.495C210.435,492.382 209.549,482.109 212.095,472.389C211.542,472.389 211.044,472.389 210.49,472.389C221.835,504.808 233.125,537.172 244.471,569.592C244.803,570.586 246.407,570.144 246.075,569.15C240.375,552.526 237.553,535.074 237.719,517.456C237.221,517.677 236.778,517.842 236.28,518.063C239.656,521.101 241.759,524.912 242.534,529.385C242.7,530.324 244.194,530.103 244.138,529.164C243.972,525.795 243.751,522.371 243.585,519.002C243.142,519.223 242.755,519.499 242.312,519.72C245.245,521.598 245.799,526.568 246.74,529.661C247.736,532.975 248.732,536.289 249.783,539.658C251.831,546.506 253.934,553.299 255.982,560.148C260.132,573.789 264.283,587.486 268.434,601.127C268.766,602.121 270.371,601.735 270.039,600.685C265.556,585.995 261.129,571.249 256.646,556.558C254.487,549.378 252.274,542.198 250.115,535.018C249.009,531.318 247.902,527.673 246.795,523.973C246.075,521.708 245.245,519.665 243.198,518.339C242.7,518.008 241.925,518.45 241.925,519.057C242.091,522.426 242.312,525.85 242.478,529.219C243.032,529.164 243.585,529.054 244.083,528.999C243.308,524.249 240.984,520.107 237.387,516.903C236.833,516.406 236.003,516.738 235.948,517.511C235.782,535.239 238.604,552.857 244.36,569.647C244.913,569.481 245.411,569.371 245.965,569.205C234.62,536.786 223.33,504.422 211.985,472.003C211.708,471.285 210.601,471.174 210.38,472.003C207.723,482.22 208.719,492.879 213.202,502.378C213.589,503.207 215.084,502.599 214.696,501.716C212.815,496.966 209.881,492.934 205.841,489.731C205.288,489.289 204.403,489.565 204.403,490.338C204.513,510.276 209.715,529.937 219.511,547.334C219.954,547.003 220.397,546.672 220.839,546.34C219.843,545.07 218.847,543.8 217.795,542.474C217.353,541.922 216.301,542.364 216.357,543.082C217.629,554.128 221.503,564.566 227.757,573.734C228.311,574.507 229.417,574.01 229.251,573.071C228.975,571.525 227.148,570.972 225.875,571.911C223.551,573.568 225.82,577.489 226.65,579.367C229.805,586.381 234.509,592.512 240.32,597.537C241.482,598.145 242.644,596.985 241.814,596.322Z" fill="#E8E8E8"/>
<path d="M183.926,472.445C183.206,462.062 202.078,468.026 207.336,469.02C215.969,470.622 224.547,472.224 233.18,473.825C250.392,477.028 267.659,480.232 284.87,483.435C285.922,483.656 286.364,482.054 285.313,481.833C265.556,478.133 245.854,474.488 226.097,470.788C216.412,468.965 206.727,467.143 197.042,465.375C193.555,464.713 189.515,463.995 186.25,465.817C183.76,467.143 182.099,469.573 182.321,472.445C182.321,473.494 184.036,473.494 183.926,472.445Z" fill="#E8E8E8"/>
<path d="M273.415,481.612C279.17,482.22 282.712,476.752 287.195,474.101C291.013,471.892 294.334,473.604 298.263,474.378C302.635,475.261 307.118,475.372 311.546,474.819C312.597,474.709 312.597,473.052 311.546,473.162C306.565,473.77 301.584,473.549 296.714,472.334C293.781,471.561 291.124,470.622 288.191,471.782C282.989,473.77 279.447,480.618 273.415,479.956C272.363,479.845 272.363,481.502 273.415,481.612Z" fill="#E8E8E8"/>
<path d="M378.952,587.817C392.235,583.178 405.628,578.539 419.352,575.225C433.686,571.801 448.13,570.42 462.852,570.862C477.407,571.304 491.851,572.961 506.351,574.286C520.906,575.667 535.461,576.992 550.016,578.373C566.729,579.919 583.498,581.466 600.212,583.067C601.264,583.178 601.264,581.521 600.212,581.411C570.382,578.649 540.552,575.888 510.667,573.071C481.945,570.42 453.056,566.499 424.444,572.408C408.727,575.667 393.563,580.969 378.454,586.215C377.514,586.547 377.956,588.148 378.952,587.817Z" fill="#E8E8E8"/>
<path d="M437.449,533.472C447.355,531.374 456.653,527.232 466.006,523.476C476.023,519.5 486.151,516.738 496.887,515.799C507.734,514.86 518.637,515.413 529.428,516.075C540.275,516.738 551.122,517.511 562.025,518.284C574.698,519.223 587.427,520.273 600.1,521.377C601.152,521.488 601.152,519.831 600.1,519.72C577.631,517.732 555.162,516.02 532.638,514.584C511.221,513.203 490.135,512.651 469.714,520.217C458.867,524.249 448.352,529.385 436.951,531.816C436.01,532.092 436.398,533.693 437.449,533.472Z" fill="#E8E8E8"/>
<path d="M565.014,469.793C572.927,463.773 581.284,457.864 590.139,453.335C594.456,451.126 599.104,449.359 603.975,448.972C609.232,448.53 614.49,449.58 619.636,450.242C630.096,451.513 640.611,452.286 651.126,452.949C658.099,453.39 666.954,454.384 671.88,448.309C672.544,447.481 671.382,446.321 670.717,447.15C665.128,454.053 653.34,451.457 645.703,450.96C635.188,450.242 624.783,449.248 614.324,447.923C609.841,447.37 605.413,446.929 600.931,447.757C596.503,448.53 592.353,450.298 588.423,452.396C579.901,456.925 571.821,462.558 564.128,468.413C563.353,469.02 564.183,470.456 565.014,469.793Z" fill="#E8E8E8"/>
<path d="M260.354,460.681C268.212,454.771 276.126,448.917 283.985,443.007C291.511,437.374 298.54,431.465 308.391,430.968C317.688,430.526 327.207,431.575 336.449,432.348C346.411,433.177 356.317,434.281 366.168,435.662C374.47,436.822 384.376,439.915 392.235,435.607C393.175,435.11 392.345,433.674 391.404,434.171C387.365,436.38 382.882,436.38 378.399,435.828C373.584,435.22 368.769,434.392 363.955,433.729C354.657,432.459 345.304,431.409 335.896,430.636C326.654,429.863 317.08,428.758 307.837,429.311C299.259,429.808 292.895,434.226 286.199,439.252C277.288,445.879 268.434,452.562 259.524,459.189C258.693,459.907 259.524,461.343 260.354,460.681Z" fill="#E8E8E8"/>
<path d="M571.71,519.058C572.208,515.413 572.928,511.878 573.979,508.343C574.477,506.686 574.975,505.03 575.639,503.373C576.027,502.379 577.078,500.722 578.517,501.108C579.237,501.329 579.569,503.814 579.624,504.312C579.735,505.195 580.952,505.471 581.229,504.532C583.83,496.082 586.819,486.804 594.788,481.889C594.345,481.668 593.958,481.392 593.515,481.171C593.515,482.551 593.46,483.987 593.46,485.368C593.46,486.141 594.622,486.528 595.009,485.81C599.935,475.593 605.303,464.878 615.265,458.693C614.877,458.361 614.434,458.085 614.047,457.754C609.066,470.622 603.255,483.159 596.67,495.309C596.227,496.082 597.334,497.077 597.998,496.303C601.706,491.885 605.469,487.467 610.339,484.264C609.952,483.877 609.564,483.49 609.177,483.104C603.034,496.027 596.337,508.619 588.977,520.88C588.423,521.819 589.862,522.647 590.416,521.709C597.721,509.448 604.473,496.856 610.616,483.932C610.948,483.269 610.228,482.275 609.454,482.772C604.473,486.086 600.599,490.56 596.78,495.088C597.223,495.42 597.666,495.751 598.108,496.082C604.75,483.822 610.616,471.174 615.652,458.14C615.929,457.478 614.988,456.87 614.434,457.201C604.196,463.553 598.662,474.433 593.57,484.926C594.068,485.092 594.622,485.202 595.12,485.368C595.12,483.987 595.175,482.551 595.175,481.171C595.175,480.563 594.456,480.121 593.902,480.453C585.601,485.589 582.336,495.199 579.624,504.091C580.177,504.146 580.731,504.256 581.229,504.312C580.952,501.495 578.406,496.69 575.307,500.28C573.758,502.102 573.149,505.085 572.485,507.349C571.378,510.994 570.603,514.75 570.05,518.561C569.994,519.665 571.544,520.107 571.71,519.058Z" fill="#E8E8E8"/>
<path d="M185.033,425.831C189.349,423.512 193.722,421.192 198.481,419.922C203.517,418.596 208.498,419.038 213.534,419.701C223.551,421.027 233.568,422.352 243.53,423.678C244.581,423.843 244.581,422.186 243.53,422.021C232.849,420.585 222.112,419.038 211.431,417.768C206.506,417.161 201.802,417.161 197.042,418.541C192.504,419.867 188.298,422.131 184.147,424.34C183.206,424.948 184.092,426.329 185.033,425.831Z" fill="#E8E8E8"/>
<path d="M521.68,51.215C525.665,47.846 531.255,48.509 535.627,50.663C538.947,52.264 541.659,55.523 545.533,55.688C549.13,55.799 552.119,53.369 555.163,51.767C557.21,50.718 559.313,50 561.638,50.497C564.128,50.994 566.286,52.43 568.556,53.424C576.027,56.683 581.008,52.154 587.317,48.564C589.088,47.57 590.969,46.686 593.017,46.52C595.618,46.3 597.942,47.459 600.267,48.453C603.919,50 606.686,50.607 610.394,49.116C614.213,47.625 617.312,47.846 621.131,49.227C623.566,50.11 625.89,51.215 628.436,51.767C632.255,52.651 636.35,52.43 639.228,49.503C640.003,48.73 638.785,47.57 638.066,48.343C634.358,52.099 628.713,50.331 624.451,48.674C620.135,47.017 615.707,45.25 611.114,46.962C608.236,48.067 606.299,48.84 603.2,47.791C601.097,47.073 599.16,45.913 597.002,45.305C593.736,44.311 590.692,44.864 587.704,46.355C584.273,48.067 581.284,50.773 577.687,52.209C572.928,54.087 569.22,51.601 564.903,49.779C561.748,48.453 558.76,48.233 555.605,49.613C551.787,51.325 548.079,55.081 543.596,53.479C541.216,52.651 539.335,50.718 537.176,49.503C535.35,48.509 533.358,47.791 531.31,47.404C527.381,46.686 523.562,47.349 520.463,49.945C519.688,50.773 520.906,51.933 521.68,51.215Z" fill="#E8E8E8"/>
<path d="M541.604,88.936C542.655,88.936 542.655,87.279 541.604,87.279C540.552,87.279 540.552,88.936 541.604,88.936Z" fill="#E8E8E8"/>
<path d="M552.672,94.956C555.273,90.261 561.416,92.526 565.235,94.072C569.053,95.619 572.485,96.558 576.525,95.177C579.845,94.017 582.834,91.808 586.265,91.035C591.024,89.93 593.736,93.962 598.053,94.901C604.805,96.392 611.612,88.881 617.976,92.029C619.747,92.912 620.964,94.072 623.067,93.907C625.004,93.796 626.775,92.857 628.657,92.415C633.915,91.2 639.393,92.139 644.098,94.735C645.038,95.232 645.869,93.796 644.928,93.299C641.939,91.642 638.729,90.648 635.353,90.317C633.638,90.151 631.867,90.206 630.151,90.482C628.104,90.759 626.222,91.642 624.23,92.029C621.518,92.526 620.356,91.2 618.142,90.261C617.035,89.82 615.818,89.599 614.655,89.654C611.888,89.764 609.232,90.924 606.686,91.863C603.421,93.078 599.934,94.238 596.614,92.581C593.791,91.2 591.578,89.102 588.257,89.102C581.395,89.157 576.58,95.729 569.33,93.741C563.962,92.25 555.329,87.003 551.344,94.072C550.735,95.066 552.174,95.895 552.672,94.956Z" fill="#E8E8E8"/>
<path d="M498.99,161.065C502.919,157.972 507.402,158.138 511.719,160.126C514.099,161.23 516.644,162.28 519.135,160.789C520.574,159.905 521.514,158.524 523.23,158.027C525.056,157.475 526.993,157.861 528.764,158.303C531.919,159.076 534.963,160.457 538.228,160.678C542.102,160.954 545.644,159.297 549.407,158.911C553.447,158.524 556.269,160.954 560.033,161.506C563.685,162.004 566.508,159.076 570.16,159.629C574.588,160.291 578.96,161.783 583.332,162.887C584.383,163.163 584.826,161.562 583.775,161.286C579.181,160.126 574.422,158.358 569.718,157.861C565.733,157.42 562.855,160.678 558.871,159.463C555.163,158.358 552.506,156.757 548.522,157.309C544.26,157.917 540.386,159.573 536.014,158.635C532.638,157.917 529.373,156.315 525.887,156.094C524.614,156.039 523.285,156.149 522.068,156.646C520.518,157.254 519.688,158.524 518.249,159.353C514.929,161.286 510.446,157.199 506.904,156.923C503.528,156.646 500.429,157.806 497.773,159.85C496.942,160.568 498.16,161.727 498.99,161.065Z" fill="#E8E8E8"/>
<path d="M181.712,40.556C182.764,40.556 182.764,38.899 181.712,38.899C180.661,38.899 180.661,40.556 181.712,40.556Z" fill="#E8E8E8"/>
<path d="M186.582,41.826C187.578,36.911 194.109,40.059 196.488,41.55C199.2,43.262 202.078,44.808 205.399,43.869C208.996,42.82 211.431,39.727 215.416,39.506C219.179,39.341 222.832,41.053 226.373,42.157C229.417,43.096 232.627,43.759 235.782,42.986C239.49,42.102 242.644,39.506 246.407,38.844C253.823,37.573 260.52,43.593 268.046,41.274C269.042,40.942 268.655,39.341 267.604,39.672C259.745,42.157 252.274,35.198 244.304,37.684C240.209,38.954 236.778,41.826 232.295,41.66C228.144,41.495 224.381,39.506 220.452,38.512C217.353,37.739 214.198,37.518 211.21,38.899C209.494,39.672 208,40.942 206.284,41.771C203.462,43.096 201.082,42.323 198.536,40.887C195.769,39.285 193.389,37.408 190.013,37.684C187.634,37.849 185.531,39.064 185.088,41.495C184.811,42.433 186.416,42.875 186.582,41.826Z" fill="#E8E8E8"/>
<path d="M191.619,364.307C198.204,361.545 204.845,366.461 211.486,366.792C214.918,366.958 218.238,366.129 221.614,365.466C225.875,364.638 229.528,364.583 233.623,366.295C236.114,367.344 238.383,368.007 240.929,367.013C242.367,366.46 243.585,365.522 245.024,365.025C246.629,364.472 248.289,364.362 250.005,364.362C255.926,364.472 261.848,366.516 267.493,363.865C268.434,363.423 267.604,361.987 266.663,362.429C260.63,365.245 253.934,362.153 247.57,362.815C244.526,363.147 242.533,364.914 239.711,365.743C236.335,366.737 233.015,363.865 229.694,363.368C222.555,362.263 215.803,366.24 208.609,364.804C202.853,363.644 197.042,360.275 191.176,362.76C190.235,363.147 190.678,364.748 191.619,364.307Z" fill="#E8E8E8"/>
<path d="M71.968,282.955C76.797,282.955 80.712,279.048 80.712,274.229C80.712,269.409 76.797,265.502 71.968,265.502C67.139,265.502 63.224,269.409 63.224,274.229C63.224,279.048 67.139,282.955 71.968,282.955Z" fill="#0A3871"/>
<path d="M580.952,222.976C584.345,222.976 587.095,220.231 587.095,216.846C587.095,213.46 584.345,210.715 580.952,210.715C577.56,210.715 574.809,213.46 574.809,216.846C574.809,220.231 577.56,222.976 580.952,222.976Z" fill="#0A3871"/>
<path d="M525.665,9.407C528.171,9.407 530.203,7.379 530.203,4.878C530.203,2.377 528.171,0.349 525.665,0.349C523.159,0.349 521.127,2.377 521.127,4.878C521.127,7.379 523.159,9.407 525.665,9.407Z" fill="#0A3871"/>
<path d="M325.768,402.138C328.886,402.138 331.413,399.616 331.413,396.505C331.413,393.393 328.886,390.871 325.768,390.871C322.651,390.871 320.124,393.393 320.124,396.505C320.124,399.616 322.651,402.138 325.768,402.138Z" fill="#0A3871"/>
<path d="M65.548,82.198C69.124,82.198 72.023,79.305 72.023,75.736C72.023,72.168 69.124,69.275 65.548,69.275C61.972,69.275 59.073,72.168 59.073,75.736C59.073,79.305 61.972,82.198 65.548,82.198Z" fill="#0A3871"/>
<path d="M288.8,308.912C290.848,308.912 292.508,307.256 292.508,305.212C292.508,303.168 290.848,301.511 288.8,301.511C286.752,301.511 285.092,303.168 285.092,305.212C285.092,307.256 286.752,308.912 288.8,308.912Z" fill="#0A3871"/>
<path d="M638.785,340.393C641.902,340.393 644.43,337.87 644.43,334.759C644.43,331.648 641.902,329.126 638.785,329.126C635.667,329.126 633.14,331.648 633.14,334.759C633.14,337.87 635.667,340.393 638.785,340.393Z" fill="#0A3871"/>
<path d="M23.488,433.508C25.811,433.508 27.694,431.629 27.694,429.311C27.694,426.993 25.811,425.113 23.488,425.113C21.165,425.113 19.282,426.993 19.282,429.311C19.282,431.629 21.165,433.508 23.488,433.508Z" fill="#0A3871"/>
<path d="M195.492,107.327C190.677,117.103 185.807,126.878 180.992,136.654C200.916,163.329 220.839,189.949 240.762,216.625C245.909,208.838 251.001,200.885 256.147,192.877C268.267,173.878 279.834,155.1 290.902,136.488C287.139,126.934 283.32,117.324 279.557,107.769C277.122,106.499 274.687,105.284 272.252,104.014C248.676,104.069 225.1,104.124 201.58,104.179C199.477,105.284 197.484,106.333 195.492,107.327Z" fill="#FFFFFF"/>
<path d="M181.657,137.096C185.863,127.872 190.179,118.704 194.607,109.592C195.049,108.653 193.666,107.769 193.168,108.763C188.74,117.876 184.424,127.044 180.218,136.267C179.775,137.206 181.214,138.09 181.657,137.096Z" fill="#000000"/>
<path d="M180.55,138.09C200.03,164.765 219.898,191.109 240.153,217.232C240.818,218.061 241.98,216.901 241.316,216.073C221.171,190.06 201.414,163.826 181.989,137.261C181.38,136.433 179.941,137.261 180.55,138.09Z" fill="#000000"/>
<path d="M194.994,108.653C197.318,107.438 199.588,106.167 201.912,104.952C202.853,104.455 202.023,103.019 201.082,103.517C198.757,104.732 196.488,106.002 194.164,107.217C193.168,107.769 194.053,109.15 194.994,108.653Z" fill="#000000"/>
<path d="M203.295,105.063C220.562,105.063 237.884,105.063 255.151,105.063C256.203,105.063 256.203,103.406 255.151,103.406C237.884,103.406 220.562,103.406 203.295,103.406C202.244,103.406 202.244,105.063 203.295,105.063Z" fill="#000000"/>
<path d="M291.677,136.322C288.191,127.099 284.593,117.986 280.886,108.818C280.498,107.824 278.893,108.266 279.281,109.26C282.989,118.373 286.586,127.541 290.072,136.764C290.46,137.758 292.065,137.316 291.677,136.322Z" fill="#000000"/>
<path d="M289.851,137.151C273.636,163.661 257.088,190.005 240.209,216.128C239.6,217.012 241.039,217.84 241.648,216.956C258.527,190.833 275.075,164.544 291.29,137.979C291.843,137.096 290.404,136.212 289.851,137.151Z" fill="#000000"/>
<path d="M279.889,107.107C277.952,105.891 276.015,104.621 274.078,103.406C273.193,102.854 272.363,104.235 273.248,104.842C275.185,106.057 277.122,107.327 279.059,108.542C280,109.15 280.83,107.714 279.889,107.107Z" fill="#000000"/>
<path d="M272.197,103.24C257.752,103.24 243.308,103.24 228.919,103.24C227.867,103.24 227.867,104.897 228.919,104.897C243.363,104.897 257.808,104.897 272.197,104.897C273.248,104.897 273.248,103.24 272.197,103.24Z" fill="#000000"/>
<path d="M182.321,137.924C192.227,133.671 202.134,129.419 212.04,125.166C213.036,124.724 212.151,123.344 211.21,123.73C201.303,127.983 191.397,132.235 181.491,136.488C180.55,136.93 181.38,138.366 182.321,137.924Z" fill="#000000"/>
<path d="M195.271,108.156C201.358,109.095 207.335,110.42 213.257,112.077C214.308,112.353 214.751,110.751 213.7,110.475C207.778,108.763 201.801,107.493 195.713,106.554C194.662,106.388 194.164,107.99 195.271,108.156Z" fill="#000000"/>
<path d="M212.814,111.801C214.142,115.943 215.305,120.085 216.301,124.338C216.522,125.387 218.127,124.945 217.906,123.896C216.91,119.643 215.747,115.501 214.419,111.359C214.087,110.365 212.482,110.752 212.814,111.801Z" fill="#000000"/>
<path d="M215.36,111.967C230.192,111.967 244.968,111.967 259.8,111.967C260.852,111.967 260.852,110.31 259.8,110.31C244.968,110.31 230.192,110.31 215.36,110.31C214.309,110.31 214.309,111.967 215.36,111.967Z" fill="#000000"/>
<path d="M259.08,112.298C258.527,115.336 257.974,118.428 257.42,121.466C257.254,122.515 258.859,122.957 259.025,121.908C259.579,118.87 260.132,115.777 260.685,112.74C260.851,111.69 259.247,111.249 259.08,112.298Z" fill="#000000"/>
<path d="M217.186,124.448C230.136,124.448 243.087,124.448 256.092,124.448C257.144,124.448 257.144,122.791 256.092,122.791C243.142,122.791 230.192,122.791 217.186,122.791C216.135,122.791 216.135,124.448 217.186,124.448Z" fill="#000000"/>
<path d="M261.405,111.967C267.437,110.696 273.414,109.426 279.447,108.156C280.498,107.935 280.055,106.333 279.004,106.554C272.972,107.824 266.995,109.095 260.962,110.365C259.911,110.586 260.354,112.188 261.405,111.967Z" fill="#000000"/>
<path d="M258.638,123.951C264.227,124.835 269.43,127.983 274.521,130.358C279.945,132.898 285.313,135.439 290.736,137.979C291.677,138.421 292.563,136.985 291.567,136.543C285.811,133.837 280.111,131.186 274.355,128.48C269.485,126.16 264.449,123.233 259.081,122.35C258.029,122.184 257.586,123.785 258.638,123.951Z" fill="#000000"/>
<path d="M217.685,126.989C224.879,156.591 232.018,186.249 239.213,215.852C239.489,216.901 241.039,216.459 240.818,215.41C233.623,185.807 226.484,156.149 219.289,126.547C219.013,125.498 217.408,125.939 217.685,126.989Z" fill="#000000"/>
<path d="M256.313,128.977C249.562,157.475 243.972,186.304 239.655,215.3C239.489,216.349 241.094,216.791 241.26,215.741C245.577,186.746 251.167,157.972 257.918,129.419C258.195,128.369 256.59,127.928 256.313,128.977Z" fill="#000000"/>
<path d="M256.867,73.693C259.357,67.342 260.741,60.659 260.962,53.811C261.018,52.761 259.357,52.761 259.302,53.811C259.081,60.493 257.697,67.01 255.262,73.251C254.875,74.245 256.48,74.632 256.867,73.693Z" fill="#000000"/>
<path d="M268.212,74.798C273.525,68.778 279.502,63.476 286.198,59.002C287.084,58.395 286.254,56.959 285.368,57.566C278.561,62.095 272.418,67.507 267.05,73.638C266.33,74.411 267.493,75.571 268.212,74.798Z" fill="#000000"/>
<path d="M279.115,85.015C285.977,82.972 293.061,82.198 300.2,82.751C301.251,82.806 301.251,81.149 300.2,81.094C292.895,80.541 285.7,81.315 278.672,83.413C277.676,83.745 278.063,85.346 279.115,85.015Z" fill="#000000"/>
<path d="M162.508,46.3C163.172,57.235 157.029,67.673 147.178,72.423C146.625,72.699 146.68,73.527 147.178,73.859C156.199,79.271 160.35,89.212 162.73,98.988C163.006,100.037 164.556,99.595 164.334,98.546C161.844,88.329 157.417,78.001 148.008,72.423C148.008,72.92 148.008,73.362 148.008,73.859C158.357,68.833 164.888,57.732 164.168,46.3C164.113,45.25 162.453,45.25 162.508,46.3Z" fill="#E8E8E8"/>
<path d="M163.117,46.3C162.397,57.787 168.928,68.888 179.277,73.859C179.277,73.362 179.277,72.92 179.277,72.423C169.813,78.056 165.386,88.384 162.895,98.656C162.619,99.706 164.224,100.148 164.5,99.098C166.88,89.268 171.031,79.271 180.107,73.859C180.605,73.583 180.66,72.699 180.107,72.423C170.256,67.673 164.058,57.235 164.722,46.3C164.832,45.25 163.172,45.25 163.117,46.3Z" fill="#E8E8E8"/>
<path d="M432.579,460.902C434.516,460.073 437.172,458.858 440.216,457.146C445.308,454.33 447.854,452.894 449.403,450.629C451.395,447.647 450.621,446.045 453.222,443.063C453.609,442.566 455.436,440.633 457.815,439.583C461.911,437.871 465.729,439.915 472.094,442.179C477.96,444.278 482.553,445.272 491.74,447.315C495.393,448.144 499.82,448.972 506.24,450.961C508.066,451.513 509.505,452.01 510.501,452.341C510.612,453.501 510.667,456.483 508.73,459.19C507.845,460.405 506.627,461.399 504.69,462.283C500.208,464.381 495.946,463.995 492.349,463.829C484.601,463.498 487.811,464.602 469.548,464.934C465.563,464.989 462.298,464.989 460.029,464.989C457.207,466.922 454.384,468.91 451.506,470.953C446.636,474.488 441.987,478.023 437.56,481.502C435.9,474.654 434.239,467.75 432.579,460.902Z" fill="#000000"/>
<path d="M409.502,390.209C405.517,392.308 405.074,393.081 390.242,405.673C367.109,425.279 364.564,426.329 343.589,444.609C323.499,462.062 319.736,466.425 315.918,472.169C306.399,486.694 304.296,498.844 303.687,504.753C302.857,512.706 301.75,523.752 308.778,532.478C313.206,537.946 318.961,540.21 320.898,540.928C326.709,543.137 331.469,542.861 340.047,542.254C351.447,541.425 360.136,539.216 363.567,538.277C367.331,537.228 376.075,534.632 387.033,529.22C397.326,524.139 401.754,520.383 415.811,510.939C422.064,506.742 431.306,500.611 442.928,493.542C443.648,488.019 443.039,483.711 442.43,481.005C440.991,474.599 438.058,470.18 434.793,465.32C432.137,461.344 429.591,458.306 427.82,456.318C431.971,453.17 437.394,448.641 443.094,442.566C446.913,438.479 452.945,431.962 457.982,422.794C464.18,411.527 470.378,400.15 466.394,392.308C460.14,379.992 430.366,379.439 409.502,390.209Z" fill="#FFFFFF"/>
<g opacity="0.18">
<path d="M459.088,396.229C455.934,403.519 450.732,413.847 442.43,424.893C430.366,440.854 418.19,449.69 399.817,462.78C347.85,499.783 333.904,508.233 335.453,511.768C337.556,516.572 366.833,507.957 371.094,506.686C402.196,497.519 425.108,483.38 439.442,473.052C435.789,467.474 432.137,461.896 428.484,456.373C432.967,453.17 439.165,448.089 444.976,440.522C448.186,436.38 453.056,429.974 456.21,420.309C459.42,410.699 459.531,402.138 459.088,396.229Z" fill="#9B9797"/>
</g>
<path d="M409.28,390.154C389.578,404.79 370.374,420.143 351.89,436.215C343.035,443.892 334.181,451.568 325.879,459.798C318.519,467.088 311.656,475.151 307.505,484.761C303.189,494.702 301.971,506.19 303.023,516.959C303.908,525.851 307.173,534.798 315.309,539.437C323.831,544.242 334.568,543.745 343.976,542.751C355.543,541.591 366.943,538.775 377.735,534.412C401.809,524.636 420.681,506.355 443.426,494.26C444.367,493.763 443.537,492.327 442.596,492.824C423.614,502.931 407.454,517.512 388.416,527.618C378.454,532.92 367.718,536.786 356.649,539.161C346.411,541.315 334.9,542.972 324.496,540.984C319.625,540.045 314.921,538.057 311.435,534.412C308.059,530.822 306.233,526.127 305.292,521.322C303.244,510.884 304.185,499.065 307.616,489.014C311.047,478.962 317.744,470.512 325.049,463.001C332.631,455.214 340.932,448.034 349.068,440.909C368.714,423.678 389.08,407.22 410.11,391.645C410.94,390.983 410.166,389.547 409.28,390.154Z" fill="#000000"/>
<path d="M355.045,503.373C373.197,496.359 389.633,485.865 405.24,474.378C412.933,468.744 420.514,462.89 428.041,457.036C435.457,451.237 442.541,445.106 448.296,437.651C448.96,436.822 447.522,435.994 446.857,436.822C440.991,444.444 433.631,450.574 426.104,456.484C418.688,462.283 411.217,468.026 403.58,473.604C388.305,484.761 372.311,495.033 354.602,501.826C353.606,502.158 354.048,503.759 355.045,503.373Z" fill="#000000"/>
<path d="M427.211,456.87C437.892,465.817 443.537,479.68 442.043,493.542C441.932,494.592 443.592,494.592 443.703,493.542C445.197,479.293 439.331,464.934 428.373,455.711C427.598,454.993 426.436,456.152 427.211,456.87Z" fill="#000000"/>
<path d="M441.932,478.133C445.087,477.194 447.854,474.543 450.51,472.666C453.831,470.346 457.096,468.026 460.416,465.707C461.302,465.099 460.472,463.663 459.586,464.271C456.598,466.37 453.554,468.523 450.566,470.622C447.798,472.555 444.755,475.537 441.489,476.532C440.438,476.808 440.881,478.409 441.932,478.133Z" fill="#000000"/>
<path d="M432.8,461.675C439.054,459.079 444.81,455.545 450.012,451.182C450.842,450.464 449.624,449.304 448.85,450.022C443.924,454.219 438.39,457.588 432.413,460.073C431.417,460.515 431.86,462.117 432.8,461.675Z" fill="#000000"/>
<path d="M449.403,450.464C450.455,450.464 450.455,448.807 449.403,448.807C448.352,448.807 448.352,450.464 449.403,450.464Z" fill="#000000"/>
<path d="M451.396,448.475C452.336,446.266 453.333,443.836 455.104,442.124C457.483,439.805 460.361,440.136 463.405,440.799C469.05,442.069 474.584,443.836 480.118,445.438C485.265,446.874 490.412,448.144 495.725,448.752C498.824,449.083 501.425,449.47 504.192,450.85C506.24,451.844 508.011,452.839 510.28,453.059C511.331,453.17 511.331,451.513 510.28,451.403C507.236,451.126 504.856,449.028 501.979,448.089C499.101,447.15 495.891,447.205 492.902,446.708C486.372,445.659 480.008,443.671 473.699,441.793C470.599,440.909 467.5,440.025 464.346,439.308C462.021,438.81 459.586,438.203 457.262,438.921C453.222,440.136 451.285,444.444 449.791,448.034C449.403,449.028 451.008,449.47 451.396,448.475Z" fill="#000000"/>
<path d="M460.195,466.922C472.038,465.155 483.771,464.878 495.725,464.658C499.876,464.602 504.303,464.105 507.623,461.399C510.446,459.079 512.051,455.71 511.276,452.121C511.055,451.071 509.45,451.513 509.671,452.562C510.723,457.588 506.185,461.289 501.702,462.393C497.108,463.498 492.128,462.945 487.424,463.056C478.126,463.222 468.939,463.995 459.752,465.375C458.701,465.486 459.199,467.088 460.195,466.922Z" fill="#000000"/>
<path d="M502.2,455.931C506.295,453.004 510.446,450.077 514.541,447.15C514.818,445.272 515.703,441.185 519.079,437.705C520.075,436.656 522.4,434.226 525.886,433.563C529.539,432.845 532.362,434.502 535.516,435.938C540.608,438.258 545.533,439.141 555.273,441.019C562.966,442.455 566.84,443.173 572.374,442.897C579.901,442.455 585.269,440.467 588.479,443.615C588.811,443.946 590.194,445.437 590.084,447.26C589.918,449.58 587.427,451.071 585.435,452.231C576.746,457.201 571.876,458.637 571.876,458.637C559.59,462.227 553.392,464.05 548.079,464.491C543.762,464.823 537.619,464.988 530.203,463.829C528.045,471.229 521.514,475.979 515.371,475.592C507.457,475.095 500.152,466.203 502.2,455.931Z" fill="#000000"/>
<path d="M422.728,407.109C423.946,403.408 426.215,398.714 430.476,397.168C433.243,396.173 435.789,396.836 436.619,397.057C441.766,398.327 452.336,396.505 473.422,392.915C483.881,391.148 497.108,388.552 512.328,384.686C512.383,387.502 512.327,391.203 512.161,395.511C511.774,405.176 510.778,412.466 510.557,414.178C509.616,421.026 507.955,432.403 502.919,446.211C501.646,449.745 500.373,452.672 499.488,454.661C501.646,455.655 503.971,456.98 506.24,458.858C515.593,466.314 518.304,476.863 519.19,481.336C517.862,482.938 515.869,485.313 513.324,488.019C503.03,498.954 493.511,505.084 475.359,516.296C464.18,523.2 455.989,528.225 442.873,535.957C426.934,545.346 414.039,552.636 397.99,557.22C394.005,558.38 387.696,559.927 379.727,559.098C375.853,558.712 368.88,557.994 362.184,553.133C353.605,546.948 350.894,537.89 349.787,533.914C347.296,525.022 348.237,516.683 350.562,508.012C352.167,501.936 357.978,481.778 378.178,459.079C382.218,454.55 393.729,444.333 416.64,423.898C422.175,418.983 426.713,414.951 429.757,412.3C427.432,410.533 425.108,408.821 422.728,407.109Z" fill="#FFFFFF"/>
<g opacity="0.18">
<path d="M497.994,391.81C496.721,396.67 494.673,403.684 491.574,411.914C463.294,486.693 400.093,519.002 405.24,527.065C409.003,533.03 445.086,518.174 471.097,502.544C490.578,490.835 505.078,478.298 514.763,468.854C513.213,466.59 510.833,463.497 507.236,460.57C503.749,457.753 500.429,456.041 497.938,454.992C499.654,452.507 501.923,448.751 503.86,443.946C505.133,440.853 506.24,437.54 507.679,430.802C510.003,420.143 510.944,411.693 511.221,409.042C511.885,402.69 512.494,394.461 512.383,384.741C507.568,387.061 502.809,389.435 497.994,391.81Z" fill="#9B9797"/>
</g>
<path d="M511.553,384.686C511.608,395.124 510.944,405.562 509.505,415.945C508.177,425.279 506.516,434.889 503.085,443.725C499.377,453.28 493.013,460.239 485.32,466.811C477.462,473.494 469.548,480.066 461.634,486.638C452.558,494.204 443.426,501.716 434.35,509.282C433.52,509.945 434.682,511.104 435.512,510.442C452.17,496.634 468.828,482.883 485.376,468.91C492.681,462.724 499.322,456.318 503.307,447.426C507.181,438.81 509.062,429.366 510.556,420.087C512.438,408.379 513.324,396.56 513.213,384.686C513.213,383.581 511.553,383.581 511.553,384.686Z" fill="#000000"/>
<path d="M423.669,408.655C425.938,409.87 428.207,411.085 430.531,412.3C431.472,412.797 432.302,411.362 431.362,410.864C429.093,409.649 426.824,408.434 424.499,407.219C423.558,406.722 422.728,408.158 423.669,408.655Z" fill="#000000"/>
<path d="M430.531,411.638C410.829,427.654 390.131,443.505 373.695,462.945C359.527,479.679 347.85,500.887 347.905,523.365C347.905,533.251 350.617,543.579 357.922,550.593C365.227,557.662 375.798,560.424 385.759,559.927C397.935,559.319 409.501,554.514 420.348,549.212C431.97,543.524 442.983,536.786 454.052,530.103C476.853,516.296 502.31,503.428 519.411,482.386C520.075,481.557 518.913,480.397 518.249,481.226C503.915,498.899 483.771,510.221 464.567,521.819C453.997,528.226 443.537,534.743 432.745,540.818C422.175,546.782 411.162,552.471 399.484,555.84C388.527,558.988 376.296,559.651 365.947,554.183C355.985,548.992 350.894,538.94 349.842,528.005C347.795,505.913 358.918,483.932 372.367,467.143C389.135,446.211 411.051,429.532 431.749,412.742C432.524,412.135 431.361,410.975 430.531,411.638Z" fill="#000000"/>
<path d="M499.101,455.323C509.505,460.294 516.755,470.125 518.471,481.502C518.637,482.551 520.241,482.109 520.075,481.06C518.36,469.296 510.723,458.968 499.986,453.887C498.99,453.446 498.16,454.881 499.101,455.323Z" fill="#000000"/>
<path d="M502.421,456.759C504.635,455.876 506.406,454.385 508.287,452.949C510.501,451.237 512.77,449.58 514.984,447.868C515.814,447.205 514.984,445.769 514.154,446.432C512.161,447.923 510.169,449.414 508.177,450.96C506.24,452.452 504.303,454.274 501.978,455.158C501.038,455.544 501.425,457.146 502.421,456.759Z" fill="#000000"/>
<path d="M515.814,447.205C516.921,443.946 518.249,440.743 520.02,437.76C522.455,433.674 526.108,434.115 530.203,435.165C536.567,436.766 542.655,439.196 549.075,440.632C561.527,443.394 574.311,444.333 587.04,443.504C588.091,443.449 588.091,441.792 587.04,441.847C572.042,442.842 556.934,441.295 542.434,437.208C538.947,436.214 535.571,434.944 532.085,433.95C529.428,433.176 526.274,432.293 523.507,432.845C521.016,433.342 519.577,435.22 518.36,437.319C516.644,440.301 515.316,443.504 514.209,446.763C513.877,447.757 515.482,448.199 515.814,447.205Z" fill="#000000"/>
<path d="M518.194,473.88C522.344,470.732 526.44,467.584 530.59,464.436C531.421,463.773 530.59,462.337 529.76,463C525.61,466.148 521.514,469.296 517.364,472.444C516.533,473.107 517.364,474.543 518.194,473.88Z" fill="#000000"/>
<path d="M530.535,464.05C544.039,466.977 557.819,464.767 570.603,459.907C576.414,457.698 583.055,455.213 588.036,451.457C591.522,448.862 592.021,443.891 587.427,442.124C586.431,441.737 585.988,443.339 586.984,443.725C589.475,444.664 589.751,447.37 588.036,449.248C587.206,450.187 586.044,450.795 584.937,451.457C582.668,452.728 580.343,453.887 578.019,454.992C573.093,457.312 568.002,459.3 562.744,460.846C552.395,463.829 541.548,464.823 530.923,462.503C529.926,462.227 529.484,463.829 530.535,464.05Z" fill="#000000"/>
<path d="M386.313,225.517C394.725,218.558 407.288,210.164 424.056,205.193C431.915,202.873 441.766,200.001 454.827,201.106C474.861,202.818 488.641,212.649 493.511,216.239C501.148,221.817 506.351,227.726 509.56,231.868C510.169,270.584 510.999,309.354 512.051,348.07C512.383,359.999 512.715,371.984 513.102,383.913C505.244,388.773 494.231,394.241 480.284,397.444C447.632,404.9 420.459,394.959 409.446,390.154C409.391,380.378 408.782,365.688 405.793,348.07C400.923,319.13 393.341,307.477 388.582,282.568C386.202,269.7 383.933,250.37 386.313,225.517Z" fill="#0A3871"/>
<path d="M486.372,235.071C483.66,238.054 483.162,241.423 483.328,254.346C483.439,267.932 484.158,277.211 484.601,287.98C484.933,295.768 485.21,301.953 485.044,310.017C484.878,320.179 484.214,328.518 483.605,334.096C478.181,340.172 473.366,344.921 469.769,348.345C461.689,356.022 452.89,364.307 439.884,372.094C434.737,375.131 430.31,377.341 427.322,378.721C424.61,378.279 421.566,377.617 418.245,376.788C410.387,374.8 407.122,373.033 401.2,373.033C399.429,373.033 393.84,373.033 393.286,375.021C392.788,376.678 395.887,379.274 398.322,380.544C400.591,381.704 401.587,381.372 403.856,382.422C406.402,383.637 408.062,385.404 409.059,386.729C408.007,388.221 406.402,390.485 404.631,393.412C402.584,396.836 402.141,398.162 399.761,402.249C397.271,406.557 395.998,408.71 394.891,409.815C393.175,411.417 392.124,411.748 384.431,415.172C376.794,418.596 375.466,419.37 375.466,420.308C375.466,421.247 376.96,421.468 382.882,424.009C387.697,426.052 388.139,426.494 390.63,427.212C393.729,428.096 395.61,428.648 397.879,428.151C401.477,427.433 403.801,424.727 404.797,423.291C405.295,423.733 406.513,424.672 408.118,424.727C409.391,424.727 410.442,424.23 411.272,423.567C414.759,421.082 416.475,416.498 419.906,411.361C420.515,410.478 422.673,407.219 426.159,403.574C428.318,401.255 430.31,399.543 431.749,398.383C433.686,397.941 436.564,397.278 439.995,396.284C453.333,392.473 462.962,387.889 471.042,384.023C475.746,381.759 481.059,378.776 491.629,372.867C500.816,367.731 505.576,364.859 509.782,359.226C510.225,358.618 512.494,355.58 514.486,351.107C515.095,349.726 517.253,344.811 518.415,336.195C518.969,332.384 518.969,330.286 519.024,318.356C519.135,303.168 519.135,304.991 519.135,303.445C519.079,281.187 517.917,283.176 517.53,262.741C517.474,260.808 517.419,255.561 515.814,248.934C514.098,241.754 511.94,238.551 510.723,236.949C509.173,234.906 507.291,232.476 504.081,231.095C498.215,228.499 490.412,230.598 486.372,235.071Z" fill="#FFFFFF"/>
<g opacity="0.25">
<path d="M504.137,231.04C505.465,235.403 507.07,241.699 508.177,249.32C509.505,258.544 510.003,268.706 507.015,295.271C504.524,317.473 503.307,328.574 500.097,338.957C495.504,353.758 492.183,364.527 482.055,373.033C475.525,378.5 468.386,381.041 454.052,386.067C443.537,389.767 434.516,391.976 428.318,393.357C423.89,399.321 417.305,406.888 407.952,414.068C400.647,419.701 393.618,423.567 387.807,426.218C388.637,426.77 392.068,428.979 396.717,428.372C402.141,427.654 405.074,423.788 405.572,423.07C406.624,423.843 408.173,424.671 409.889,424.395C413.431,423.843 415.312,418.817 416.253,416.553C418.301,411.858 422.396,405.397 431.583,398.327C437.671,396.726 445.917,394.296 455.491,390.651C468.828,385.514 477.794,380.544 487.424,375.187C502.864,366.571 506.351,363.036 508.896,359.612C513.545,353.371 515.482,346.965 516.312,344.148C517.807,339.122 518.083,333.489 518.637,322.498C519.024,314.325 519.024,308.028 519.024,303.279C519.024,295.105 518.858,289.03 518.692,283.783C518.471,276.161 518.028,267.214 516.921,256.5C516.091,248.713 515.482,245.62 513.711,242.141C510.999,236.618 506.959,233.083 504.137,231.04Z" fill="#9B9797"/>
</g>
<path d="M485.542,234.85C482.664,242.03 482.332,249.762 482.498,257.439C482.664,265.889 483.107,274.284 483.494,282.734C484.269,299.855 484.822,317.031 482.775,334.096C482.664,335.146 484.324,335.146 484.435,334.096C486.427,317.417 485.985,300.573 485.21,283.838C484.822,275.554 484.38,267.27 484.158,258.93C483.937,250.922 484.103,242.858 487.147,235.292C487.534,234.298 485.929,233.856 485.542,234.85Z" fill="#000000"/>
<path d="M485.985,332.661C480.893,335.477 476.798,339.564 472.868,343.817C468.607,348.401 464.346,352.874 459.586,356.961C449.846,365.411 438.888,372.37 427.156,377.782C426.159,378.224 427.045,379.66 427.986,379.218C439.276,374.027 449.846,367.399 459.31,359.391C464.014,355.47 468.33,351.162 472.481,346.689C476.798,341.994 481.114,337.245 486.759,334.152C487.756,333.544 486.925,332.108 485.985,332.661Z" fill="#000000"/>
<path d="M427.543,377.893C421.455,376.622 415.312,375.297 409.225,373.916C406.181,373.253 403.082,372.425 399.983,371.873C398.046,371.541 395.998,371.376 394.282,372.48C391.626,374.192 391.626,377.34 394.006,379.218C395.721,380.599 397.935,381.206 399.983,381.869C403.303,382.918 406.126,384.244 408.284,387.061C408.948,387.889 410.387,387.061 409.723,386.232C407.786,383.747 405.461,381.98 402.473,380.93C400.425,380.212 398.156,379.77 396.275,378.721C394.946,378.003 393.231,376.899 394.227,374.91C395.168,373.033 397.547,373.198 399.263,373.474C403.856,374.137 408.45,375.463 413.043,376.512C417.747,377.561 422.452,378.555 427.156,379.55C428.152,379.715 428.595,378.114 427.543,377.893Z" fill="#000000"/>
<path d="M406.956,387.337C404.521,391.811 402.03,396.229 399.595,400.702C398.378,402.856 397.326,405.176 395.887,407.275C394.393,409.429 392.401,410.533 390.076,411.638C385.704,413.681 381,415.338 376.794,417.713C374.912,418.817 373.695,420.806 375.3,422.739C377.292,425.114 381.221,424.175 383.878,423.733C387.53,423.125 391.017,421.91 394.338,420.364C401.255,417.05 407.122,411.859 411.328,405.452C411.936,404.568 410.498,403.74 409.889,404.624C406.181,410.367 401.034,415.007 395.002,418.21C392.124,419.701 389.025,420.916 385.87,421.634C384.099,422.076 382.218,422.463 380.336,422.518C378.62,422.628 378.178,422.849 377.347,421.137C376.296,420.143 376.407,419.48 377.624,419.149C378.011,418.983 378.344,418.817 378.731,418.652C382.273,416.995 385.87,415.393 389.412,413.736C392.179,412.466 394.891,411.362 396.773,408.876C398.986,405.949 400.536,402.47 402.307,399.267C404.355,395.566 406.402,391.866 408.395,388.221C408.893,387.227 407.454,386.398 406.956,387.337Z" fill="#000000"/>
<path d="M432.247,399.432C447.024,395.29 461.357,389.767 475.082,382.919C481.889,379.495 488.53,375.794 495.006,371.707C500.816,368.062 506.959,364.362 511.11,358.784C511.719,357.9 510.28,357.072 509.671,357.955C505.355,363.81 498.603,367.62 492.515,371.376C486.317,375.187 479.897,378.721 473.367,381.98C460.029,388.552 446.138,393.854 431.804,397.886C430.808,398.107 431.251,399.708 432.247,399.432Z" fill="#000000"/>
<path d="M486.649,236.342C491.242,227.339 503.03,229.383 508.841,235.789C515.814,243.521 516.146,254.843 516.921,264.674C518.581,286.158 518.913,307.808 517.585,329.292C516.921,339.73 515.371,350.776 508.398,359.06C507.734,359.888 508.896,361.048 509.56,360.22C515.814,352.708 517.972,343.209 518.858,333.71C520.02,321.56 520.02,309.244 519.909,297.038C519.799,284.28 519.19,271.467 518.028,258.764C517.142,249.21 515.427,238.661 507.513,232.31C500.761,226.898 489.471,227.063 485.155,235.513C484.712,236.452 486.151,237.281 486.649,236.342Z" fill="#000000"/>
<path d="M382.384,424.671C386.424,426.494 391.294,429.255 395.887,429.255C400.315,429.2 403.58,425.555 406.568,422.794C415.146,414.841 423.725,406.888 432.303,398.99C433.077,398.272 431.915,397.112 431.14,397.83C423.89,404.568 416.641,411.251 409.391,417.989C406.181,420.916 402.86,425.113 398.82,426.936C394.061,429.09 387.531,425.224 383.269,423.291C382.273,422.794 381.443,424.23 382.384,424.671Z" fill="#000000"/>
<path d="M404.908,423.512C406.734,426.936 410.774,425.555 412.822,423.181C416.862,418.431 420.016,412.687 423.448,407.551C424.056,406.667 422.618,405.839 422.009,406.723C419.85,409.926 417.692,413.129 415.534,416.332C414.316,418.1 408.948,427.654 406.347,422.684C405.849,421.745 404.41,422.573 404.908,423.512Z" fill="#000000"/>
<path d="M392.069,420.806C393.729,421.69 395.776,422.573 397.603,421.69C398.544,421.193 398.931,420.419 399.374,419.536C400.149,418.044 400.923,416.885 402.362,415.946C403.248,415.338 402.418,413.902 401.532,414.51C400.204,415.393 399.097,416.498 398.322,417.934C397.769,418.983 397.437,420.254 395.998,420.364C394.946,420.475 393.784,419.812 392.899,419.37C392.013,418.928 391.128,420.309 392.069,420.806Z" fill="#000000"/>
<path d="M380.723,105.228C378.786,109.15 376.849,115.722 376.241,117.876C375.355,120.969 373.363,128.204 372.256,137.813C371.647,143.115 370.983,148.914 371.537,156.591C371.813,160.236 372.201,165.98 374.359,173.105C375.798,177.965 377.901,184.979 383.601,192.158C388.582,198.399 394.282,202.321 398.82,204.695C401.698,204.751 405.185,204.585 409.059,203.867C416.032,202.542 421.455,199.946 425.108,197.847C425.606,200.664 426.27,203.646 427.1,206.739C428.816,213.145 430.919,218.779 433.022,223.639C435.291,223.252 438.003,222.59 440.881,221.264C450.012,217.011 454.384,209.169 455.934,205.91C455.104,202.707 454.439,199.228 453.831,195.638C451.728,182.217 452.281,170.233 453.609,160.512C454.772,160.899 456.653,161.396 458.978,161.286C463.516,161.009 466.615,158.524 468.164,157.199C469.493,156.094 475.525,150.737 475.304,142.784C475.248,140.906 475.138,136.322 471.872,133.837C468.829,131.573 464.733,132.401 461.745,133.008C458.313,133.726 455.768,135.162 454.218,136.157C455.38,132.346 457.815,122.57 454.218,111.193C453.443,108.763 448.297,93.299 433.133,86.616C412.545,77.448 387.807,91.035 380.723,105.228Z" fill="#FFFFFF"/>
<g opacity="0.24">
<path d="M443.26,105.56C443.703,110.696 444.035,118.152 443.26,126.989C440.881,153.775 430.255,172.387 427.488,177.026C423.282,184.095 416.087,194.368 404.576,204.475C408.007,204.033 411.936,203.26 416.142,201.769C427.709,197.682 435.457,190.668 439.663,186.084C439.995,192.214 441.047,199.67 443.537,207.844C444.644,211.323 445.861,214.526 447.134,217.398C450.067,213.588 452.945,209.777 455.878,205.911C455.27,202.321 454.716,198.51 454.329,194.589C453.056,182.715 453.056,171.779 453.72,162.059C456.21,162.114 459.808,161.893 463.626,160.402C480.34,153.775 489.859,127.431 480.838,113.071C480.45,112.464 478.458,109.371 474.363,106.609C461.689,98.104 445.585,104.566 443.26,105.56Z" fill="#9B9797"/>
</g>
<path d="M376.683,116.219C375.576,112.408 374.027,105.118 375.632,96.171C376.13,93.41 377.845,84.518 383.933,77.504C392.843,67.287 404.022,69.22 418.522,64.028C427.709,60.77 440.327,53.921 453.111,37.794C451.949,43.759 450.787,49.779 449.624,55.744C451.617,56.296 458.313,57.732 465.176,54.363C476.576,48.785 477.572,35.309 477.628,34.702C479.011,37.794 481.502,44.643 480.395,53.369C479.62,59.334 477.462,63.807 475.912,66.513C476.576,67.231 480.118,70.876 484.213,70.324C489.194,69.661 493.843,62.868 492.515,54.087C493.622,57.345 494.95,62.703 494.618,69.275C494.175,77.283 491.519,83.303 489.748,86.561C490.19,86.948 493.013,89.489 496.998,88.991C500.484,88.55 503.473,86.009 504.635,82.419C504.358,86.12 503.694,91.477 501.536,97.607C498.603,105.891 496.167,106.554 494.95,112.464C493.013,121.742 497.994,124.89 496.666,133.174C495.559,140.133 491.021,144.496 485.265,150.074C474.805,160.181 462.796,165.649 452.724,168.687C453.166,165.594 453.664,162.501 454.107,159.408C455.38,160.181 457.594,161.231 460.361,161.12C466.006,160.899 469.548,155.873 471.429,153.167C473.588,150.13 477.185,144.938 475.248,139.36C473.643,134.831 469.382,132.954 468.994,132.788C464.014,130.689 457.594,132.567 453.443,137.648C451.119,128.535 448.85,119.478 446.525,110.365C438.667,105.394 430.863,100.479 423.005,95.508C419.131,94.79 408.56,93.355 396.717,98.601C384.763,103.903 378.676,112.905 376.683,116.219Z" fill="#0A3871"/>
<path d="M375.853,115.998C371.149,133.561 368.327,152.228 372.643,170.178C376.185,184.758 385.151,201.382 400.425,206.132C401.421,206.463 401.864,204.861 400.868,204.53C385.538,199.78 376.96,182.494 373.805,167.913C370.098,150.792 372.92,133.119 377.403,116.44C377.735,115.446 376.13,115.004 375.853,115.998Z" fill="#000000"/>
<path d="M401.643,205.855C427.156,203.26 448.462,184.868 454.439,159.905C454.661,158.856 453.111,158.414 452.834,159.463C447.023,183.598 426.491,201.658 401.643,204.199C400.591,204.309 400.536,205.966 401.643,205.855Z" fill="#000000"/>
<path d="M453.001,160.347C464.401,167.306 475.525,152.725 476.244,142.508C476.632,137.096 474.141,132.953 468.773,131.407C463.792,129.971 458.369,131.462 454.827,135.218C454.107,135.991 455.27,137.151 455.989,136.378C458.922,133.229 463.35,131.849 467.611,132.788C469.825,133.285 472.26,134.5 473.533,136.488C474.916,138.642 474.75,141.624 474.418,143.999C473.09,152.56 463.571,164.82 453.831,158.856C452.945,158.359 452.06,159.794 453.001,160.347Z" fill="#000000"/>
<path d="M452.89,160.236C450.732,175.535 451.506,191.054 455.159,206.076C455.436,207.126 457.04,206.684 456.764,205.634C453.167,190.888 452.392,175.645 454.495,160.678C454.605,159.629 453.001,159.187 452.89,160.236Z" fill="#000000"/>
<path d="M424.278,198.068C425.993,207.015 428.65,215.686 432.303,224.081C432.745,225.075 434.184,224.191 433.741,223.252C430.144,215.023 427.543,206.463 425.883,197.626C425.661,196.577 424.112,197.019 424.278,198.068Z" fill="#000000"/>
<path d="M433.465,224.302C444.146,222.59 453.167,215.244 457.207,205.248C457.594,204.254 455.989,203.812 455.602,204.806C451.783,214.305 443.094,221.098 433.022,222.7C431.97,222.866 432.413,224.467 433.465,224.302Z" fill="#000000"/>
<path d="M425.606,200.001C427.875,200.111 429.425,198.565 431.14,197.239C433.409,195.472 435.568,193.594 437.56,191.606C441.268,187.906 444.256,183.653 446.193,178.793C446.581,177.799 444.976,177.357 444.588,178.351C442.873,182.659 440.216,186.47 437.007,189.784C435.568,191.33 434.018,192.711 432.413,194.091C430.642,195.583 428.096,198.454 425.606,198.344C424.555,198.289 424.555,199.946 425.606,200.001Z" fill="#000000"/>
<path d="M425.717,199.118C430.421,196.08 434.793,192.601 438.888,188.79C439.663,188.072 438.501,186.857 437.726,187.63C433.741,191.386 429.48,194.755 424.887,197.737C423.946,198.234 424.831,199.67 425.717,199.118Z" fill="#000000"/>
<path d="M393.175,119.202C390.076,133.285 388.305,147.589 387.918,162.004C387.918,162.832 389.025,163.108 389.468,162.446C391.626,159.021 393.784,155.542 395.943,152.118C396.496,151.234 395.057,150.351 394.504,151.289C392.345,154.714 390.187,158.193 388.029,161.617C388.527,161.783 389.08,161.893 389.578,162.059C389.966,147.81 391.737,133.616 394.78,119.699C395.002,118.594 393.397,118.152 393.175,119.202Z" fill="#000000"/>
<path d="M395.389,182.77C394.061,180.285 393.175,177.634 392.954,174.817C392.788,172.829 393.231,164.765 396.994,167.969C398.986,169.681 398.71,173.436 398.765,175.921C398.765,177.081 398.765,178.296 398.654,179.456C398.599,180.285 398.488,181.113 398.322,181.886C396.883,182.88 395.776,182.825 395.057,181.776C394.338,181.003 393.12,182.162 393.895,182.936C396.275,185.366 399.374,185.476 400.038,181.665C400.536,178.959 400.536,176.087 400.315,173.381C400.149,171.227 400.148,168.134 398.544,166.477C396.164,164.047 392.788,166.312 391.847,168.907C390.132,173.547 391.792,179.401 394.005,183.598C394.448,184.537 395.887,183.709 395.389,182.77Z" fill="#000000"/>
<path d="M406.845,133.064C408.505,140.851 418.743,141.459 421.787,134.279C422.175,133.285 420.57,132.843 420.182,133.837C417.692,139.691 409.723,138.587 408.45,132.622C408.228,131.628 406.624,132.015 406.845,133.064Z" fill="#000000"/>
<path d="M403.58,113.899C405.683,109.205 411.106,106.941 416.087,107.99C421.234,109.095 425.163,113.071 427.709,117.434C428.263,118.373 429.701,117.545 429.148,116.606C426.215,111.58 421.566,107.106 415.589,106.223C410.221,105.45 404.465,107.99 402.141,113.016C401.698,114.065 403.137,114.894 403.58,113.899Z" fill="#000000"/>
<path d="M371.149,115.722C372.643,112.629 375.244,109.26 379.063,109.316C382.716,109.371 385.372,112.574 387.198,115.391C387.752,116.275 389.191,115.446 388.637,114.562C386.534,111.193 383.38,107.714 379.063,107.659C374.636,107.604 371.537,111.249 369.766,114.894C369.267,115.833 370.706,116.661 371.149,115.722Z" fill="#000000"/>
<path d="M380.945,140.741C381.923,140.741 382.716,137.106 382.716,132.622C382.716,128.138 381.923,124.504 380.945,124.504C379.967,124.504 379.174,128.138 379.174,132.622C379.174,137.106 379.967,140.741 380.945,140.741Z" fill="#000000"/>
<path d="M386.036,228.113C385.87,230.156 385.649,232.973 385.538,236.231C385.04,247.388 385.483,255.838 385.649,258.102C386.091,265.447 387.088,275.057 389.412,286.213C387.198,288.754 383.878,292.509 379.616,296.928C371.536,305.378 367.386,309.686 360.745,314.159C353.329,319.13 348.182,320.676 345.415,321.394C341.928,322.222 338.608,322.996 334.568,322.112C327.982,320.621 324.053,315.761 322.614,313.883C318.961,309.244 318.131,304.715 316.637,295.878C315.53,289.417 315.308,284.501 314.976,275.002C314.81,270.473 314.589,264.95 314.7,257.55C314.81,249.21 315.253,239.324 316.471,228.278C317.024,223.308 317.799,217.177 319.016,210.219C318.076,208.893 317.079,207.568 316.028,206.187C314.921,204.751 313.87,203.37 312.763,201.99C309.94,204.364 307.173,206.794 304.351,209.169C303.631,209.445 302.358,209.887 300.809,209.722C297.876,209.445 296.16,207.402 295.551,206.739C292.84,203.646 293.227,199.725 293.338,198.952C297.156,194.81 300.975,190.723 304.849,186.581C304.904,184.206 305.236,181.113 306.177,177.689C306.897,175.148 307.782,173.05 308.612,171.282C309.332,169.846 310.328,168.245 311.601,166.643C313.87,163.661 316.305,161.562 318.297,160.126C316.692,160.844 316.305,160.844 316.194,160.734C315.917,160.292 318.518,157.033 322.171,156.702C324.219,156.481 325.824,157.254 326.93,157.751C328.646,158.58 329.808,159.629 330.528,160.402C333.959,157.475 337.39,154.548 340.821,151.676C342.039,152.394 343.256,153.223 344.474,154.051C347.296,155.984 349.842,157.917 352.111,159.795C351.281,160.844 350.23,162.004 348.901,163.164C346.688,165.097 344.474,166.257 342.758,167.03C343.81,167.361 345.691,168.134 346.632,169.957C347.573,171.724 347.186,173.657 346.632,176.087C346.245,177.744 345.747,179.07 345.359,179.953C345.581,182.273 345.691,185.421 345.027,188.956C343.976,194.755 341.541,199.062 339.881,201.548C339.825,203.702 339.77,207.071 339.881,211.213C340.323,228.278 342.814,238.275 344.419,250.867C345.359,258.047 346.3,268.706 346.024,282.126C347.296,281.298 349.123,279.973 351.17,278.26C356.373,273.897 359.693,269.534 364.065,263.128C368.382,256.887 371.204,252.248 375.023,246.062C377.403,242.03 381.221,235.9 386.036,228.113Z" fill="#FFFFFF"/>
<g opacity="0.24">
<path d="M335.73,177.689C334.568,180.229 333.406,182.825 332.243,185.476C328.867,193.429 326.1,201.051 323.831,208.341C323.333,219.828 323.056,229.438 322.835,236.397C322.558,246.946 323.223,259.538 324.44,284.722C324.938,295.105 325.381,301.401 330.251,305.985C335.342,310.735 342.426,310.845 346.411,310.845C367.662,310.79 383.546,292.73 387.918,287.484C381.996,297.535 375.244,304.107 370.651,307.973C365.449,312.336 358.752,317.804 348.348,320.51C339.548,322.83 335.564,322.333 334.512,322.112C326.93,320.289 322.724,313.993 321.23,311.839C317.633,306.482 316.471,300.904 315.807,288.919C315.142,276.603 315.862,273.345 316.083,256.39C316.249,240.208 315.641,235.624 316.858,224.412C317.578,217.84 318.463,212.428 319.183,208.783C317.024,206.518 314.866,204.254 312.707,202.045C310.881,203.646 309,205.193 307.118,206.794C305.9,207.844 304.627,208.893 303.41,209.887C302.303,209.998 300.698,209.942 298.983,209.224C294.555,207.347 291.788,201.879 293.172,200.001C294.057,198.731 296.381,199.725 299.591,199.725C305.126,199.78 308.833,196.964 316.194,191.662C321.396,187.851 327.373,183.598 335.73,177.689Z" fill="#9B9797"/>
</g>
<path d="M385.317,227.671C372.533,245.289 363.069,265.502 346.909,280.525C346.134,281.243 347.296,282.402 348.071,281.684C364.342,266.552 373.861,246.228 386.756,228.499C387.42,227.671 385.981,226.842 385.317,227.671Z" fill="#000000"/>
<path d="M337.722,323.382C359.638,321.946 375.355,303.61 388.527,288.036C389.191,287.207 388.029,286.048 387.364,286.876C374.58,302.119 359.084,320.345 337.778,321.781C336.671,321.781 336.671,323.437 337.722,323.382Z" fill="#000000"/>
<path d="M327.318,167.803C327.428,172.166 330.306,175.922 334.512,177.137C335.564,177.413 336.007,175.811 334.955,175.535C331.468,174.541 329.089,171.393 328.978,167.803C328.923,166.754 327.262,166.754 327.318,167.803Z" fill="#000000"/>
<path d="M329.033,167.306C329.587,162.501 338.165,165.98 340.489,167.195C342.758,168.355 345.027,169.515 345.526,172.276C345.913,174.375 345.249,176.584 344.695,178.628C344.419,179.677 346.024,180.119 346.3,179.07C347.075,176.308 347.905,173.16 346.743,170.454C345.636,167.692 342.592,166.422 340.102,165.207C337.556,163.992 334.789,163.108 331.911,163.44C330.749,163.606 329.255,163.882 328.314,164.655C327.318,165.428 327.539,165.98 327.373,167.361C327.263,168.355 328.923,168.355 329.033,167.306Z" fill="#000000"/>
<path d="M344.142,178.296C343.976,182.494 344.917,186.581 343.921,190.778C342.98,194.644 341.098,198.234 339.217,201.713C338.718,202.652 340.157,203.48 340.655,202.542C342.592,198.897 344.529,195.196 345.526,191.22C346.577,186.912 345.636,182.659 345.802,178.296C345.858,177.192 344.197,177.192 344.142,178.296Z" fill="#000000"/>
<path d="M339.216,201.768C337.944,230.874 346.3,259.372 344.972,288.478C344.917,289.527 346.577,289.527 346.632,288.478C347.961,259.372 339.604,230.874 340.877,201.768C340.932,200.719 339.272,200.719 339.216,201.768Z" fill="#000000"/>
<path d="M312.043,202.376C313.704,204.695 315.475,206.905 317.467,208.948C318.186,209.721 319.349,208.562 318.629,207.788C316.747,205.8 315.032,203.757 313.482,201.547C312.818,200.664 311.379,201.492 312.043,202.376Z" fill="#000000"/>
<path d="M318.408,208.506C315.253,226.456 313.704,244.681 313.759,262.907C313.814,271.964 314.257,281.077 315.143,290.079C315.862,297.756 316.747,305.819 320.787,312.557C324.44,318.688 330.86,323.327 338.165,323.161C339.217,323.106 339.217,321.449 338.165,321.504C327.927,321.78 321.341,312.668 318.961,303.721C316.305,293.89 316.083,283.176 315.696,273.069C314.866,251.64 316.36,230.101 320.068,209.003C320.179,207.899 318.574,207.457 318.408,208.506Z" fill="#000000"/>
<path d="M307.948,183.709C302.746,188.072 297.71,192.656 292.95,197.461C292.175,198.234 293.393,199.394 294.112,198.62C298.927,193.816 303.908,189.232 309.11,184.868C309.94,184.206 308.778,183.046 307.948,183.709Z" fill="#000000"/>
<path d="M292.452,198.952C291.622,205.358 296.492,210.771 302.967,210.716C304.019,210.716 304.019,209.059 302.967,209.059C297.378,209.114 293.393,204.419 294.112,198.952C294.278,197.902 292.618,197.902 292.452,198.952Z" fill="#000000"/>
<path d="M294.002,198.565C299.813,198.731 303.853,203.923 302.635,209.556C302.414,210.605 304.019,211.047 304.24,209.998C305.734,203.205 300.975,197.129 294.002,196.908C292.95,196.908 292.95,198.565 294.002,198.565Z" fill="#000000"/>
<path d="M304.904,209.721C311.213,203.978 317.633,198.289 323.776,192.38C326.598,189.673 329.31,186.912 331.856,183.93C333.239,182.328 336.726,179.18 336.781,176.971C336.781,176.695 336.615,176.363 336.394,176.253C336.283,176.198 336.173,176.142 336.117,176.142C335.785,175.977 335.343,175.977 335.121,176.253C335.066,176.308 335.01,176.363 334.955,176.474C334.291,177.302 335.453,178.462 336.117,177.634C336.173,177.578 336.228,177.523 336.283,177.413C335.951,177.468 335.619,177.523 335.287,177.523C335.176,177.026 335.01,177.026 334.789,177.578C334.512,177.965 334.236,178.352 333.904,178.738C333.239,179.567 332.631,180.395 331.911,181.223C330.804,182.604 329.587,183.93 328.425,185.255C325.99,187.906 323.444,190.391 320.843,192.821C315.198,198.123 309.442,203.26 303.742,208.506C302.912,209.28 304.129,210.439 304.904,209.721Z" fill="#000000"/>
<path d="M305.624,186.801C306.011,184.15 306.399,181.5 306.786,178.849C307.063,176.86 307.284,174.651 308.391,172.884C310.937,168.797 314.534,171.724 316.471,174.485C317.301,175.645 318.076,176.916 318.906,178.075C319.349,178.738 321.507,181.113 321.23,181.941C321.507,181.72 321.784,181.555 322.005,181.334C321.894,181.334 321.839,181.334 321.728,181.334C320.677,181.279 320.677,182.935 321.728,182.991C321.839,182.991 321.894,182.991 322.005,182.991C322.392,182.991 322.725,182.715 322.78,182.383C323.167,181.002 322.226,180.174 321.507,179.069C320.123,177.026 318.795,174.927 317.356,172.939C315.862,170.896 313.925,168.907 311.158,169.183C308.502,169.46 306.897,171.503 306.066,173.878C304.683,177.799 304.572,182.273 303.963,186.36C303.853,187.409 305.458,187.851 305.624,186.801Z" fill="#000000"/>
<path d="M308.225,180.561C309.719,183.488 312.21,186.47 315.751,186.691C318.685,186.912 321.452,185.255 322.226,182.383C322.503,181.334 320.898,180.892 320.622,181.942C319.902,184.593 316.969,185.587 314.534,184.758C312.21,183.93 310.715,181.886 309.664,179.788C309.166,178.793 307.727,179.622 308.225,180.561Z" fill="#000000"/>
<path d="M310.272,169.791C310.549,167.085 313.648,166.367 315.751,167.085C317.965,167.803 319.681,169.791 321.23,171.393C322.448,172.663 324.828,174.43 325.16,176.198C325.602,178.573 322.614,180.174 320.622,180.782C319.625,181.058 320.013,182.66 321.064,182.383C323.499,181.665 327.041,179.511 327.429,176.64C327.595,175.48 326.875,174.872 326.1,174.044C324.551,172.387 323.057,170.785 321.452,169.184C319.293,166.975 316.526,164.6 313.206,165.152C310.715,165.539 308.889,167.195 308.612,169.736C308.502,170.841 310.162,170.841 310.272,169.791Z" fill="#000000"/>
<path d="M313.261,165.704C314.036,164.821 314.423,163.661 315.143,162.777C316.913,160.568 319.681,162.611 321.507,163.937C325.049,166.422 328.812,170.951 325.602,175.259C324.993,176.142 326.432,176.971 327.041,176.087C330.472,171.448 327.096,166.091 323.167,163.108C321.341,161.728 318.574,159.242 316.083,159.96C313.87,160.568 313.482,163.108 312.099,164.6C311.379,165.318 312.541,166.477 313.261,165.704Z" fill="#000000"/>
<path d="M318.85,160.678C320.787,158.303 323.333,155.818 326.322,158.303C328.314,159.905 329.587,162.169 330.306,164.544C330.638,165.538 332.188,165.152 331.911,164.102C330.97,160.899 328.812,157.199 325.602,155.873C322.337,154.548 319.625,157.144 317.688,159.518C317.024,160.292 318.186,161.507 318.85,160.678Z" fill="#000000"/>
<path d="M331.081,160.899C334.512,157.972 337.944,155.045 341.375,152.173C342.205,151.455 340.987,150.295 340.213,151.013C336.781,153.94 333.35,156.868 329.919,159.739C329.089,160.457 330.306,161.617 331.081,160.899Z" fill="#000000"/>
<path d="M343.312,167.969C346.577,165.594 349.732,163.053 352.665,160.292C353.44,159.574 352.277,158.414 351.503,159.132C348.625,161.783 345.636,164.268 342.482,166.533C341.596,167.14 342.426,168.576 343.312,167.969Z" fill="#000000"/>
<path d="M398.587,130.468C398.587,147.229 384.971,160.827 368.161,160.827L368.161,166.827C388.273,166.827 404.587,150.554 404.587,130.468L398.587,130.468ZM368.161,160.827C351.351,160.827 337.734,147.229 337.734,130.468L331.734,130.468C331.734,150.554 348.049,166.827 368.161,166.827L368.161,160.827ZM337.734,130.468C337.734,113.708 351.351,100.11 368.161,100.11L368.161,94.11C348.049,94.11 331.734,110.382 331.734,130.468L337.734,130.468ZM368.161,100.11C384.971,100.11 398.587,113.708 398.587,130.468L404.587,130.468C404.587,110.382 388.273,94.11 368.161,94.11L368.161,100.11Z" fill="#000000"/>
<path d="M347.905,134.555C360.191,126.713 372.754,119.312 385.593,112.353C386.534,111.856 385.704,110.42 384.763,110.917C371.924,117.821 359.361,125.222 347.075,133.119C346.19,133.727 347.02,135.163 347.905,134.555Z" fill="#000000"/>
<path d="M349.289,149.025C359.416,141.624 369.655,134.5 380.115,127.541C381,126.934 380.17,125.498 379.284,126.105C368.88,133.064 358.586,140.244 348.459,147.589C347.573,148.197 348.403,149.633 349.289,149.025Z" fill="#000000"/>
</svg>
