<svg width="32" height="32" viewBox="0 0 32 32" fill="none" xmlns="http://www.w3.org/2000/svg" xmlns:xlink="http://www.w3.org/1999/xlink">
<path d="M32,16C32,20.243 30.314,24.313 27.314,27.314C24.313,30.314 20.243,32 16,32C11.757,32 7.687,30.314 4.686,27.314C1.686,24.313 0,20.243 0,16C0,11.757 1.686,7.687 4.686,4.686C7.687,1.686 11.757,0 16,0C20.243,0 24.313,1.686 27.314,4.686C30.314,7.687 32,11.757 32,16L32,16ZM16,8C15.747,8 15.497,8.053 15.266,8.156C15.035,8.258 14.828,8.408 14.659,8.596C14.489,8.783 14.361,9.004 14.282,9.244C14.203,9.484 14.175,9.738 14.2,9.99L14.9,17.004C14.924,17.28 15.05,17.536 15.253,17.723C15.457,17.91 15.723,18.014 16,18.014C16.277,18.014 16.543,17.91 16.747,17.723C16.95,17.536 17.076,17.28 17.1,17.004L17.8,9.99C17.825,9.738 17.797,9.484 17.718,9.244C17.639,9.004 17.511,8.783 17.341,8.596C17.172,8.408 16.965,8.258 16.734,8.156C16.503,8.053 16.253,8 16,8L16,8ZM16.004,20C15.474,20 14.965,20.211 14.59,20.586C14.215,20.961 14.004,21.47 14.004,22C14.004,22.53 14.215,23.039 14.59,23.414C14.965,23.789 15.474,24 16.004,24C16.534,24 17.043,23.789 17.418,23.414C17.793,23.039 18.004,22.53 18.004,22C18.004,21.47 17.793,20.961 17.418,20.586C17.043,20.211 16.534,20 16.004,20Z" fill="#495057"/>
</svg>
