<svg width="64" height="96" viewBox="0 0 64 96" fill="none" xmlns="http://www.w3.org/2000/svg" xmlns:xlink="http://www.w3.org/1999/xlink">
<path d="M46.792,47.306C46.705,47.862 46.493,48.392 46.173,48.855C45.852,49.318 45.431,49.702 44.941,49.98C43.953,50.617 43.089,50.936 42.215,51.255C40.354,51.898 38.395,52.54 36.323,53.286C34.137,54.031 32.178,54.777 30.43,55.317C28.25,56.063 26.178,56.705 24.208,57.451C22.727,58.085 21.335,58.911 20.069,59.909C18.892,60.975 17.864,62.197 17.015,63.539C16.141,65.03 15.59,66.953 15.59,69.195C15.59,73.684 16.68,77.098 18.866,79.232C21.046,81.479 25.088,82.544 31.078,82.544C37.187,82.544 41.331,81.371 43.521,79.021C45.696,76.671 46.786,73.365 46.786,69.097L46.786,47.306L46.792,47.306ZM31.083,0C41.778,0 49.63,2.031 54.643,6.196C59.662,10.258 62.171,15.482 62.171,21.673L62.171,74.43C62.171,76.563 61.739,78.913 60.978,81.474C60.207,84.045 58.685,86.39 56.284,88.518C53.995,90.663 50.833,92.478 46.797,93.866C42.76,95.254 37.526,96 31.088,96C24.661,96 19.416,95.254 15.385,93.866C11.353,92.478 8.186,90.663 5.898,88.518C3.769,86.6 2.157,84.178 1.208,81.474C0.437,78.918 0,76.569 0,74.435L0,66.002C0,61.513 1.198,57.348 3.599,53.713C6.001,49.98 9.379,47.419 13.744,45.815C15.925,45.069 18.434,44.324 21.267,43.362C24.105,42.395 26.718,41.434 29.34,40.585C31.962,39.727 34.25,38.868 36.21,38.117C37.392,37.644 38.593,37.219 39.809,36.842L41.773,35.88C42.544,35.454 43.3,34.811 44.066,33.957C44.827,33.109 45.48,32.147 46.031,31.078C46.612,29.92 46.911,28.641 46.905,27.345L46.905,23.925C46.913,22.672 46.65,21.432 46.133,20.29C45.702,19.005 44.827,17.832 43.629,16.768C42.431,15.698 40.791,14.845 38.832,14.197C36.868,13.564 34.256,13.241 31.304,13.241C25.195,13.241 21.159,14.423 18.979,16.871C17.128,19.01 16.038,21.678 15.822,24.666C15.822,25.309 15.277,25.735 14.619,25.735L1.316,25.951C1,25.953 0.697,25.829 0.471,25.608C0.246,25.386 0.117,25.085 0.113,24.769L0.113,21.684C0.113,18.686 0.663,15.909 1.861,13.241C3.065,10.567 4.921,8.33 7.425,6.402C9.934,4.484 13.21,2.885 17.133,1.815C20.953,0.53 25.643,0 31.093,0L31.083,0Z" clip-rule="evenodd" fill-rule="evenodd" fill="#0A3871"/>
</svg>
